<?xml version="1.0" encoding="UTF-8" standalone="no"?>
<svg
   xmlns:dc="http://purl.org/dc/elements/1.1/"
   xmlns:cc="http://creativecommons.org/ns#"
   xmlns:rdf="http://www.w3.org/1999/02/22-rdf-syntax-ns#"
   xmlns:svg="http://www.w3.org/2000/svg"
   xmlns="http://www.w3.org/2000/svg"
   id="svg8"
   version="1.1"
   viewBox="0 0 7.9374998 7.9375002"
   height="30"
   width="30">
  <defs
     id="defs2">
    <marker
       style="overflow:visible;"
       id="marker4836"
       refX="0.0"
       refY="0.0"
       orient="auto">
      <path
         transform="scale(0.2) rotate(180) translate(6,0)"
         style="fill-rule:evenodd;stroke:#000000;stroke-width:1pt;stroke-opacity:1;fill:#000000;fill-opacity:1"
         d="M 0.0,0.0 L 5.0,-5.0 L -12.5,0.0 L 5.0,5.0 L 0.0,0.0 z "
         id="path4834" />
    </marker>
    <marker
       style="overflow:visible;"
       id="Arrow1Send"
       refX="0.0"
       refY="0.0"
       orient="auto">
      <path
         transform="scale(0.2) rotate(180) translate(6,0)"
         style="fill-rule:evenodd;stroke:#000000;stroke-width:1pt;stroke-opacity:1;fill:#000000;fill-opacity:1"
         d="M 0.0,0.0 L 5.0,-5.0 L -12.5,0.0 L 5.0,5.0 L 0.0,0.0 z "
         id="path4521" />
    </marker>
    <marker
       style="overflow:visible;"
       id="Arrow2Mend"
       refX="0.0"
       refY="0.0"
       orient="auto">
      <path
         transform="scale(0.6) rotate(180) translate(0,0)"
         d="M 8.7185878,4.0337352 L -2.2072895,0.016013256 L 8.7185884,-4.0017078 C 6.9730900,-1.6296469 6.9831476,1.6157441 8.7185878,4.0337352 z "
         style="fill-rule:evenodd;stroke-width:0.625;stroke-linejoin:round;stroke:#000000;stroke-opacity:1;fill:#000000;fill-opacity:1"
         id="path4533" />
    </marker>
    <marker
       style="overflow:visible"
       id="marker4836-0"
       refX="0"
       refY="0"
       orient="auto">
      <path
         transform="matrix(-0.2,0,0,-0.2,-1.2,0)"
         style="fill:#000000;fill-opacity:1;fill-rule:evenodd;stroke:#000000;stroke-width:1.00000003pt;stroke-opacity:1"
         d="M 0,0 5,-5 -12.5,0 5,5 Z"
         id="path4834-4" />
    </marker>
  </defs>
  <metadata
     id="metadata5">
    <rdf:RDF>
      <cc:Work
         rdf:about="">
        <dc:format>image/svg+xml</dc:format>
        <dc:type
           rdf:resource="http://purl.org/dc/dcmitype/StillImage" />
        <dc:title></dc:title>
      </cc:Work>
    </rdf:RDF>
  </metadata>
  <g
     transform="translate(0,-289.06248)"
     id="layer1">
    <g
       transform="matrix(0.89858878,0,0,0.89858878,0.26904098,29.893291)"
       id="g5313">
      <path
         style="fill:none;stroke:#000000;stroke-width:0.26458332px;stroke-linecap:round;stroke-linejoin:miter;stroke-opacity:1;marker-end:url(#marker4836)"
         d="m 0.96885203,296.03113 v -6.06368"
         id="path4832" />
      <path
         style="fill:none;stroke:#000000;stroke-width:0.26458332px;stroke-linecap:round;stroke-linejoin:miter;stroke-opacity:1;marker-end:url(#marker4836-0)"
         d="M 0.96885203,296.03113 H 7.032532"
         id="path4832-2" />
    </g>
    <path
       d="m 2.9512848,291.94275 a 0.5333308,0.5333308 0 0 1 -0.5311876,0.53333 0.5333308,0.5333308 0 0 1 -0.5354568,-0.52904 0.5333308,0.5333308 0 0 1 0.526884,-0.53758 0.5333308,0.5333308 0 0 1 0.5396915,0.52472"
       id="path5329"
       style="fill:none;fill-opacity:1;fill-rule:nonzero;stroke:#000000;stroke-width:0.26499999;stroke-linecap:round;stroke-linejoin:round;stroke-miterlimit:4;stroke-dasharray:none;stroke-opacity:1" />
    <path
       d="m 4.4902624,292.16898 a 0.5333308,0.5333308 0 0 1 -0.5311876,0.53332 0.5333308,0.5333308 0 0 1 -0.5354568,-0.52904 0.5333308,0.5333308 0 0 1 0.526884,-0.53758 0.5333308,0.5333308 0 0 1 0.5396915,0.52472"
       id="path5329-7"
       style="fill:none;fill-opacity:1;fill-rule:nonzero;stroke:#000000;stroke-width:0.26499999;stroke-linecap:round;stroke-linejoin:round;stroke-miterlimit:4;stroke-dasharray:none;stroke-opacity:1" />
    <path
       d="M 4.0532275,293.78717 A 0.5333308,0.5333308 0 0 1 3.52204,294.3205 0.5333308,0.5333308 0 0 1 2.9865832,293.79146 0.5333308,0.5333308 0 0 1 3.5134671,293.25388 0.5333308,0.5333308 0 0 1 4.0531586,293.7786"
       id="path5329-1"
       style="fill:none;fill-opacity:1;fill-rule:nonzero;stroke:#000000;stroke-width:0.26499999;stroke-linecap:round;stroke-linejoin:round;stroke-miterlimit:4;stroke-dasharray:none;stroke-opacity:1" />
    <path
       d="m 6.3801435,291.22403 a 0.5333308,0.5333308 0 0 1 -0.5311875,0.53333 0.5333308,0.5333308 0 0 1 -0.5354568,-0.52904 0.5333308,0.5333308 0 0 1 0.5268839,-0.53758 0.5333308,0.5333308 0 0 1 0.5396915,0.52472"
       id="path5329-2"
       style="fill:none;fill-opacity:1;fill-rule:nonzero;stroke:#000000;stroke-width:0.26499999;stroke-linecap:round;stroke-linejoin:round;stroke-miterlimit:4;stroke-dasharray:none;stroke-opacity:1" />
    <path
       d="m 6.0612262,294.16516 a 0.5333308,0.5333308 0 0 1 -0.5311875,0.53333 0.5333308,0.5333308 0 0 1 -0.5354568,-0.52904 0.5333308,0.5333308 0 0 1 0.5268839,-0.53758 0.5333308,0.5333308 0 0 1 0.5396915,0.52472"
       id="path5329-5"
       style="fill:none;fill-opacity:1;fill-rule:nonzero;stroke:#000000;stroke-width:0.26499999;stroke-linecap:round;stroke-linejoin:round;stroke-miterlimit:4;stroke-dasharray:none;stroke-opacity:1" />
    <path
       d="m 2.8366166,294.8266 a 0.5333308,0.5333308 0 0 1 -0.5311875,0.53333 0.5333308,0.5333308 0 0 1 -0.5354568,-0.52904 0.5333308,0.5333308 0 0 1 0.5268839,-0.53758 0.5333308,0.5333308 0 0 1 0.5396915,0.52472"
       id="path5329-8"
       style="fill:none;fill-opacity:1;fill-rule:nonzero;stroke:#000000;stroke-width:0.26499999;stroke-linecap:round;stroke-linejoin:round;stroke-miterlimit:4;stroke-dasharray:none;stroke-opacity:1" />
  </g>
</svg>
